<svg xmlns="http://www.w3.org/2000/svg" width="28" height="28" fill="none" xmlns:v="https://vecta.io/nano"><rect width="28" height="28" rx="14" fill="#f5f5f5"/><g clip-path="url(#A)"><g fill-rule="evenodd"><path d="M13.589 21.656V10.972l-2.219-.949-3.712 1.587v10.046h5.931z" fill="#909cd1"/><path d="M11.37 21.656h2.219V10.972l-2.219-.949v11.632z" fill="#7986bf"/><path d="M20.342 21.656h-7.129V7.868l3.565-1.524 3.565 1.524v13.789z" fill="#aeaed6"/><path d="M16.777 21.656h-3.565V7.868l3.565-1.524v15.312z" fill="#d1d1f0"/><g fill="#f3f3ff"><path d="M19.263 8.743c0-.104.084-.187.188-.187s.188.084.188.188v11.163c0 .103-.084.188-.187.188s-.187-.084-.187-.187V8.743zm-1.782-.762c0-.104.084-.187.188-.187s.188.084.188.188v11.925c0 .103-.084.188-.187.188s-.187-.084-.187-.187V7.982zm.891.381c0-.104.084-.187.188-.187s.188.084.188.188v11.544c0 .103-.084.188-.187.188s-.187-.084-.187-.187V8.362zm-8.161 13.294H8.817V18.25l1.394-.133v3.539z"/></g><path d="M15.071 16.099v-1.37l.759-.117v1.415l-.759.073zm0-2.159V12.57l.759-.187v1.414l-.759.143zm0-2.158v-1.37l.759-.258v1.415l-.759.213zm0-2.158V8.34l.759-.326V9.34l-.759.283h0zm-1.356 6.605v-1.289l.674-.104v1.328l-.674.065zm0-2.032v-1.292l.674-.166v1.332l-.674.127zm0-2.033v-1.292l.674-.228v1.332l-.674.189h0zm0-2.036V8.921l.674-.289v1.245l-.674.25z" fill="#aeaed6"/><path d="M15.294 16.078v-1.383l.759-.117v1.428l-.759.073zm0-2.18v-1.382l.759-.187v1.427l-.759.143h0zm0-2.179v-1.383l.759-.257v1.428l-.759.213zm0-2.179V8.244l.76-.326v1.339l-.759.283zm-1.356 6.667v-1.302l.674-.104v1.341l-.674.065zm0-2.053v-1.305l.674-.166v1.345l-.674.127zm0-2.054v-1.305l.674-.228v1.345l-.674.189zm0-2.056V8.825l.674-.289v1.258l-.674.25h0z" fill="#f3f3ff"/><path d="M14.017 21.656v-3.973l.281-.027v4h-.281z" fill="#aeaed6"/><path d="M15.692 21.656h-1.394v-4l1.394-.133v4.132z" fill="#f3f3ff"/><path d="M13.873 17.885c-.103.01-.194-.066-.204-.168s.066-.194.168-.204l2.105-.2c.103-.01.194.066.204.168s-.066.194-.168.204l-2.105.2z" fill="#aeaed6"/><path d="M9.356 16.471v-1.117l.632-.13v1.16l-.632.087zm0-1.76v-1.117l.632-.2v1.161l-.632.156zm0-1.759v-1.046l.632-.268v1.088l-.632.225h0zm-1.109 3.672v-1.042l.548-.113v1.079l-.548.075zm0-1.639v-1.041l.548-.172v1.079l-.548.135h0zm0-1.64v-.972l.549-.231v1.009l-.549.194z" fill="#7986bf"/><path d="M9.56 16.442v-1.13l.632-.13v1.174l-.632.087zm0-1.782v-1.131l.632-.2v1.175l-.632.156zm0-1.782v-1.059l.632-.268v1.102l-.632.225zm-1.109 3.716v-1.056l.548-.113v1.093l-.548.075h0zm0-1.661v-1.056l.548-.172v1.093l-.548.135h0zm0-1.662v-.986L9 12.055v1.023l-.549.194h0z" fill="#f3f3ff"/><path d="M8.817 21.656h-.233v-3.384l.233-.022v3.406z" fill="#7986bf"/></g><path d="M6.361 20.875h15.278v.782H6.361v-.782z" fill="#e6b17c"/><path d="M6.361 21.266h15.278v.391H6.361v-.391z" fill="#d19458"/><path fill-rule="evenodd" d="M8.566 18.462c-.103.01-.194-.066-.204-.168s.066-.194.168-.204l1.932-.184c.103-.01.194.066.204.169s-.066.194-.168.204l-1.932.184z" fill="#3d4a75"/></g><defs><clipPath id="A"><path fill="#fff" transform="translate(6 6)" d="M0 0h16v16H0z"/></clipPath></defs></svg>