<svg xmlns="http://www.w3.org/2000/svg" width="24" height="24" fill="none" xmlns:v="https://vecta.io/nano"><g clip-path="url(#A)" stroke-width="1.5" stroke-linejoin="round"><path d="M19 8.71l-5.333-4.148C13.199 4.198 12.623 4 12.03 4s-1.169.198-1.637.562L5.059 8.71c-.321.249-.58.569-.758.933s-.271.766-.271 1.172v7.2a2 2 0 0 0 2 2h12a2 2 0 0 0 2-2v-7.2c0-.823-.38-1.6-1.03-2.105z" fill="#2853af" stroke="#2853af"/><path d="M16 15c-2.21 1.333-5.792 1.333-8 0" stroke="#fefefe" stroke-linecap="round"/></g><defs><clipPath id="A"><path fill="#fff" d="M0 0h24v24H0z"/></clipPath></defs></svg>