<svg xmlns="http://www.w3.org/2000/svg" width="28" height="28" fill="none" xmlns:v="https://vecta.io/nano"><rect width="28" height="28" rx="14" fill="#f5f5f5"/><g clip-path="url(#AG)"><path d="M10.004 21.849h-3.58c-.234 0-.424-.19-.424-.424v-8.288c0-.234.19-.424.424-.424h3.58v9.136z" fill="url(#A)"/><path d="M17.996 21.849h3.58c.234 0 .424-.19.424-.424v-8.288c0-.234-.19-.424-.424-.424h-3.58v9.136z" fill="url(#B)"/><path d="M22 16.047v5.377c0 .235-.19.424-.424.424h-3.58v-9.136h.669L22 16.047z" fill="url(#C)"/><path d="M9.333 9.435h9.333v12.413H9.333V9.435z" fill="url(#D)"/><path d="M17.857 21.848h-7.713c-.219 0-.396-.177-.396-.396V10.306c0-.219.177-.396.396-.396h7.713c.219 0 .396.177.396.396v11.147c0 .219-.177.396-.396.396z" fill="url(#E)"/><use href="#AH" fill="url(#F)"/><path d="M17.352 13.152c.25 0 .454.204.454.454v1.477c0 .25-.204.454-.454.454h-1.477c-.25 0-.454-.204-.454-.454v-1.477c0-.25.204-.454.454-.454h1.477z" fill="url(#G)"/><path d="M17.352 15.747c.25 0 .454.204.454.454v1.477c0 .25-.204.454-.454.454h-1.477c-.25 0-.454-.204-.454-.454v-1.477c0-.25.204-.454.454-.454h1.477z" fill="url(#H)"/><path d="M12.125 10.557c.25 0 .454.204.454.454v1.477c0 .25-.204.454-.454.454h-1.477c-.25 0-.454-.204-.454-.454v-1.477c0-.25.204-.454.454-.454h1.477z" fill="url(#I)"/><path d="M12.125 13.152c.25 0 .454.204.454.454v1.477c0 .25-.204.454-.454.454h-1.477c-.25 0-.454-.204-.454-.454v-1.477c0-.25.204-.454.454-.454h1.477z" fill="url(#J)"/><path d="M12.125 15.747c.25 0 .454.204.454.454v1.477c0 .25-.204.454-.454.454h-1.477c-.25 0-.454-.204-.454-.454v-1.477c0-.25.204-.454.454-.454h1.477z" fill="url(#K)"/><path d="M14.738 10.557c.25 0 .454.204.454.454v1.477c0 .25-.204.454-.454.454h-1.477c-.25 0-.454-.204-.454-.454v-1.477c0-.25.204-.454.454-.454h1.477z" fill="url(#L)"/><path d="M14.738 13.152c.25 0 .454.204.454.454v1.477c0 .25-.204.454-.454.454h-1.477c-.25 0-.454-.204-.454-.454v-1.477c0-.25.204-.454.454-.454h1.477z" fill="url(#M)"/><path d="M14.738 15.747c.25 0 .454.204.454.454v1.477c0 .25-.204.454-.454.454h-1.477c-.25 0-.454-.204-.454-.454v-1.477c0-.25.204-.454.454-.454h1.477z" fill="url(#N)"/><path d="M18.666 9.435H9.333v.143l9.333 9.333V9.435z" fill="url(#O)"/><path d="M14 21.848h4.218c.247 0 .448-.176.448-.394V9.435H14v12.413z" fill="url(#P)"/><path d="M16.011 18.802c-.023-.049-.073-.082-.13-.082h-3.761c-.08 0-.145.065-.145.145v.193c0 .058.034.107.082.13l2.662 2.662h3.138 0 .39a.42.42 0 0 0 .419-.393l-2.654-2.654z" fill="url(#Q)"/><path d="M12.255 19.142h3.49v2.707h-3.49v-2.707z" fill="url(#R)"/><path d="M14.718 21.849h1.027v-2.707h-3.49v.243l2.464 2.464z" fill="url(#S)"/><path d="M15.585 21.848h-3.171v-2.32a.18.18 0 0 1 .18-.18h2.811a.18.18 0 0 1 .18.18v2.32z" fill="url(#T)"/><path d="M14 19.142h1.745v2.707H14v-2.707z" fill="url(#U)"/><path d="M15.881 19.202h-3.761c-.08 0-.145-.065-.145-.145v-.193c0-.08.065-.145.145-.145h3.762c.08 0 .145.065.145.145v.193c0 .08-.065.145-.145.145z" fill="url(#V)"/><use href="#AI" fill="url(#W)"/><path d="M10.647 15.307c-.124 0-.224-.101-.224-.224v-1.477c0-.124.101-.224.224-.224h1.477c.124 0 .224.101.224.224v1.477c0 .124-.101.224-.224.224h-1.477z" fill="url(#X)"/><path d="M10.647 12.712c-.124 0-.224-.101-.224-.224v-1.477c0-.124.101-.224.224-.224h1.477c.124 0 .224.101.224.224v1.477c0 .124-.101.224-.224.224h-1.477z" fill="url(#Y)"/><path d="M15.875 17.902c-.124 0-.224-.101-.224-.224v-1.477c0-.124.101-.224.224-.224h1.477c.124 0 .224.101.224.224v1.477c0 .124-.101.224-.224.224h-1.477z" fill="url(#Z)"/><path d="M15.875 15.307c-.124 0-.224-.101-.224-.224v-1.477c0-.124.101-.224.224-.224h1.477c.124 0 .224.101.224.224v1.477c0 .124-.101.224-.224.224h-1.477z" fill="url(#a)"/><path d="M15.875 12.712c-.124 0-.224-.101-.224-.224v-1.477c0-.124.101-.224.224-.224h1.477c.124 0 .224.101.224.224v1.477c0 .124-.101.224-.224.224h-1.477z" fill="url(#b)"/><path d="M13.261 17.902c-.124 0-.224-.101-.224-.224v-1.477c0-.124.101-.224.224-.224h1.477c.124 0 .224.101.224.224v1.477c0 .124-.101.224-.224.224h-1.477z" fill="url(#c)"/><path d="M13.261 15.307c-.124 0-.224-.101-.224-.224v-1.477c0-.124.101-.224.224-.224h1.477c.124 0 .224.101.224.224v1.477c0 .124-.101.224-.224.224h-1.477z" fill="url(#d)"/><path d="M13.261 12.712c-.124 0-.224-.101-.224-.224v-1.477c0-.124.101-.224.224-.224h1.477c.124 0 .224.101.224.224v1.477c0 .124-.101.224-.224.224h-1.477z" fill="url(#e)"/><use href="#AJ" fill="url(#f)"/><path d="M10.726 8.454h.251v.681h-.251v-.681z" fill="url(#g)"/><path d="M12.185 8.454h.251v.681h-.251v-.681z" fill="url(#h)"/><path d="M14.071 8.454h.251v.681h-.251v-.681z" fill="url(#i)"/><path d="M15.988 8.454h.251v.681h-.251v-.681z" fill="url(#j)"/><path d="M17.759 8.454h.25v.681h-.25v-.681z" fill="url(#k)"/><path d="M9.381 8.487V6.312c0-.052.026-.092.079-.12s.115-.041.188-.041.136.014.188.041.079.067.079.12v.838h.681v-.838c0-.052.026-.092.079-.12s.115-.041.188-.041.136.014.188.041.079.067.079.12v2.175c0 .052-.026.093-.079.121a.39.39 0 0 1-.188.043c-.073 0-.136-.014-.188-.043s-.079-.069-.079-.121V7.56h-.681v.927c0 .052-.026.093-.079.121s-.115.043-.188.043-.136-.014-.188-.043-.079-.069-.079-.121z" fill="url(#l)"/><path d="M11.471 7.865v-.906c0-.278.076-.482.229-.612s.356-.195.609-.195.459.065.612.195.229.334.229.612v.906c0 .278-.076.482-.229.612s-.357.195-.612.195-.456-.065-.609-.195-.229-.334-.229-.612zm.534 0c0 .228.101.342.304.342s.308-.114.308-.342v-.906c0-.228-.103-.342-.308-.342s-.304.114-.304.342v.906z" fill="url(#m)"/><path d="M13.297 6.38c0-.062.014-.116.041-.161s.067-.068.12-.068h1.477c.052 0 .092.023.12.068s.041.099.041.161a.31.31 0 0 1-.043.168c-.028.045-.068.068-.118.068h-.472v1.869c0 .053-.026.094-.079.122s-.115.043-.188.043-.136-.014-.188-.043-.079-.069-.079-.122V6.616h-.472c-.05 0-.09-.023-.118-.068a.31.31 0 0 1-.043-.168z" fill="url(#n)"/><path d="M15.308 8.487V6.315c0-.052.023-.093.068-.121s.1-.043.164-.043h1.217c.052 0 .092.023.12.068s.041.099.041.161a.31.31 0 0 1-.043.168c-.029.046-.068.068-.118.068h-.916v.578h.513c.05 0 .09.021.118.062s.043.09.043.147-.014.099-.041.14-.067.062-.12.062h-.513v.581h.916c.05 0 .089.023.118.068a.31.31 0 0 1 .043.168c0 .062-.014.115-.041.161s-.067.068-.12.068h-1.217c-.064 0-.118-.014-.164-.043s-.068-.069-.068-.121z" fill="url(#o)"/><path d="M17.151 8.487V6.312c0-.052.026-.092.079-.12a.4.4 0 0 1 .188-.041c.073 0 .136.014.188.041s.079.067.079.12v1.874h.78c.048 0 .085.023.113.068s.041.1.041.164-.014.119-.041.164-.065.068-.113.068h-1.081c-.064 0-.119-.014-.164-.043s-.068-.069-.068-.121z" fill="url(#p)"/><path d="M18.832 9.578H9.168c-.086 0-.156-.07-.156-.156v-.418c0-.086.07-.156.156-.156h9.664c.086 0 .156.07.156.156v.418c0 .086-.07.156-.156.156z" fill="url(#q)"/><path d="M12.125 10.787h-1.477c-.031 0-.061.006-.088.018l1.771 1.771c.011-.027.018-.057.018-.088v-1.477c0-.124-.101-.224-.224-.224z" fill="url(#r)"/><path d="M14.739 10.787H14v1.926h.739c.124 0 .224-.101.224-.224v-1.477c0-.124-.101-.224-.224-.224z" fill="url(#s)"/><use href="#AK" fill="url(#t)"/><path d="M8.459 15.747c.25 0 .454.204.454.454v1.477c0 .25-.204.454-.454.454H6.982c-.25 0-.454-.204-.454-.454v-1.477c0-.25.204-.454.454-.454h1.477z" fill="url(#u)"/><path d="M8.459 18.342c.25 0 .454.204.454.454v1.477c0 .25-.204.454-.454.454H6.982c-.25 0-.454-.204-.454-.454v-1.477c0-.25.204-.454.454-.454h1.477z" fill="url(#v)"/><use href="#AL" fill="url(#w)"/><path d="M6.982 17.902c-.124 0-.224-.101-.224-.224v-1.477c0-.124.101-.224.224-.224h1.477c.124 0 .224.101.224.224v1.477c0 .124-.101.224-.224.224H6.982z" fill="url(#x)"/><path d="M6.982 15.307c-.124 0-.224-.101-.224-.224v-1.477c0-.124.101-.224.224-.224h1.477c.124 0 .224.101.224.224v1.477c0 .124-.101.224-.224.224H6.982z" fill="url(#y)"/><use href="#AM" fill="url(#z)"/><path d="M21.018 15.747c.25 0 .454.204.454.454v1.477c0 .25-.204.454-.454.454H19.54c-.25 0-.454-.204-.454-.454v-1.477c0-.25.204-.454.454-.454h1.477z" fill="url(#AA)"/><path d="M21.018 18.342c.25 0 .454.204.454.454v1.477c0 .25-.204.454-.454.454H19.54c-.25 0-.454-.204-.454-.454v-1.477c0-.25.204-.454.454-.454h1.477z" fill="url(#AB)"/><use href="#AN" fill="url(#AC)"/><path d="M19.54 17.902c-.124 0-.224-.101-.224-.224v-1.477c0-.124.101-.224.224-.224h1.477c.124 0 .224.101.224.224v1.477c0 .124-.101.224-.224.224H19.54z" fill="url(#AD)"/><path d="M19.54 15.307c-.124 0-.224-.101-.224-.224v-1.477c0-.124.101-.224.224-.224h1.477c.124 0 .224.101.224.224v1.477c0 .124-.101.224-.224.224H19.54z" fill="url(#AE)"/><path d="M19.391 13.439c-.046.041-.075.101-.075.167v1.477c0 .124.101.224.224.224h1.477c.066 0 .126-.029.167-.075l-1.793-1.794z" fill="url(#AF)"/></g><defs><linearGradient id="A" x1="6.167" y1="14.829" x2="10.187" y2="19.897" href="#AO"><stop stop-color="#4a98f7"/><stop offset="1" stop-color="#0469bc"/></linearGradient><linearGradient id="B" x1="18.256" y1="15.662" x2="22.043" y2="19.45" href="#AO"><stop stop-color="#4a98f7"/><stop offset="1" stop-color="#0469bc"/></linearGradient><linearGradient id="C" x1="21.2" y1="17.28" x2="16.381" y2="17.28" href="#AO"><stop stop-color="#0469bc" stop-opacity="0"/><stop offset="1" stop-color="#0469bc"/></linearGradient><linearGradient id="D" x1="10.51" y1="12.152" x2="22.507" y2="24.149" href="#AO"><stop stop-color="#4a98f7"/><stop offset="1" stop-color="#0469bc"/></linearGradient><linearGradient id="E" x1="12.742" y1="15.004" x2="6.501" y2="10.662" href="#AO"><stop stop-color="#18cffc" stop-opacity="0"/><stop offset="1" stop-color="#65e1dc"/></linearGradient><linearGradient id="F" x1="17.767" y1="12.291" x2="14.072" y2="10.556" href="#AO"><stop stop-color="#4a98f7"/><stop offset="1" stop-color="#0469bc"/></linearGradient><linearGradient id="G" x1="17.767" y1="14.886" x2="14.072" y2="13.151" href="#AO"><stop stop-color="#4a98f7"/><stop offset="1" stop-color="#0469bc"/></linearGradient><linearGradient id="H" x1="17.767" y1="17.481" x2="14.072" y2="15.746" href="#AO"><stop stop-color="#4a98f7"/><stop offset="1" stop-color="#0469bc"/></linearGradient><linearGradient id="I" x1="12.54" y1="12.291" x2="8.844" y2="10.556" href="#AO"><stop stop-color="#4a98f7"/><stop offset="1" stop-color="#0469bc"/></linearGradient><linearGradient id="J" x1="12.54" y1="14.886" x2="8.844" y2="13.151" href="#AO"><stop stop-color="#4a98f7"/><stop offset="1" stop-color="#0469bc"/></linearGradient><linearGradient id="K" x1="12.54" y1="17.481" x2="8.844" y2="15.746" href="#AO"><stop stop-color="#4a98f7"/><stop offset="1" stop-color="#0469bc"/></linearGradient><linearGradient id="L" x1="15.153" y1="12.291" x2="11.458" y2="10.556" href="#AO"><stop stop-color="#4a98f7"/><stop offset="1" stop-color="#0469bc"/></linearGradient><linearGradient id="M" x1="15.153" y1="14.886" x2="11.458" y2="13.151" href="#AO"><stop stop-color="#4a98f7"/><stop offset="1" stop-color="#0469bc"/></linearGradient><linearGradient id="N" x1="15.153" y1="17.481" x2="11.458" y2="15.746" href="#AO"><stop stop-color="#4a98f7"/><stop offset="1" stop-color="#0469bc"/></linearGradient><linearGradient id="O" x1="14.434" y1="11.65" x2="13.379" y2="6.443" href="#AO"><stop stop-color="#0469bc" stop-opacity="0"/><stop offset="1" stop-color="#0469bc"/></linearGradient><linearGradient id="P" x1="15.701" y1="14.702" x2="9.98" y2="6.191" href="#AO"><stop stop-color="#0469bc" stop-opacity="0"/><stop offset="1" stop-color="#0469bc"/></linearGradient><linearGradient id="Q" x1="15.643" y1="21.458" x2="15.045" y2="19.251" href="#AO"><stop stop-color="#0469bc" stop-opacity="0"/><stop offset="1" stop-color="#0469bc"/></linearGradient><linearGradient id="R" x1="12.269" y1="19.683" x2="17.813" y2="22.285" href="#AO"><stop stop-color="#f9f7fc"/><stop offset="1" stop-color="#f0ddfc"/></linearGradient><linearGradient id="S" x1="14.47" y1="20.784" x2="13.298" y2="16.993" href="#AO"><stop stop-color="#f0ddfc" stop-opacity="0"/><stop offset=".289" stop-color="#c8b7e0" stop-opacity=".289"/><stop offset=".592" stop-color="#a595c8" stop-opacity=".592"/><stop offset=".84" stop-color="#8f81b8" stop-opacity=".84"/><stop offset="1" stop-color="#8779b3"/></linearGradient><linearGradient id="T" x1="14.094" y1="20.86" x2="13.394" y2="19.43" href="#AO"><stop stop-color="#e9edf5" stop-opacity="0"/><stop offset="1" stop-color="#fff"/></linearGradient><linearGradient id="U" x1="15.028" y1="20.544" x2="12.015" y2="19.604" href="#AO"><stop stop-color="#f0ddfc" stop-opacity="0"/><stop offset=".289" stop-color="#c8b7e0" stop-opacity=".289"/><stop offset=".592" stop-color="#a595c8" stop-opacity=".592"/><stop offset=".84" stop-color="#8f81b8" stop-opacity=".84"/><stop offset="1" stop-color="#8779b3"/></linearGradient><linearGradient id="V" x1="14" y1="18.783" x2="14" y2="19.212" href="#AO"><stop stop-color="#ffda45"/><stop offset="1" stop-color="#ffa425"/></linearGradient><linearGradient id="W" x1="10.417" y1="16.485" x2="13.522" y2="17.942" href="#AO"><stop stop-color="#f9f7fc"/><stop offset="1" stop-color="#f0ddfc"/></linearGradient><linearGradient id="X" x1="10.417" y1="13.889" x2="13.522" y2="15.347" href="#AO"><stop stop-color="#f9f7fc"/><stop offset="1" stop-color="#f0ddfc"/></linearGradient><linearGradient id="Y" x1="10.417" y1="11.294" x2="13.522" y2="12.752" href="#AO"><stop stop-color="#f9f7fc"/><stop offset="1" stop-color="#f0ddfc"/></linearGradient><linearGradient id="Z" x1="15.645" y1="16.485" x2="18.749" y2="17.942" href="#AO"><stop stop-color="#f9f7fc"/><stop offset="1" stop-color="#f0ddfc"/></linearGradient><linearGradient id="a" x1="15.645" y1="13.889" x2="18.749" y2="15.347" href="#AO"><stop stop-color="#f9f7fc"/><stop offset="1" stop-color="#f0ddfc"/></linearGradient><linearGradient id="b" x1="15.645" y1="11.294" x2="18.749" y2="12.752" href="#AO"><stop stop-color="#f9f7fc"/><stop offset="1" stop-color="#f0ddfc"/></linearGradient><linearGradient id="c" x1="13.031" y1="16.485" x2="16.136" y2="17.942" href="#AO"><stop stop-color="#f9f7fc"/><stop offset="1" stop-color="#f0ddfc"/></linearGradient><linearGradient id="d" x1="13.031" y1="13.889" x2="16.136" y2="15.347" href="#AO"><stop stop-color="#f9f7fc"/><stop offset="1" stop-color="#f0ddfc"/></linearGradient><linearGradient id="e" x1="13.031" y1="11.294" x2="16.136" y2="12.752" href="#AO"><stop stop-color="#f9f7fc"/><stop offset="1" stop-color="#f0ddfc"/></linearGradient><linearGradient id="f" x1="9.524" y1="8.795" x2="9.754" y2="8.795" href="#AO"><stop stop-color="#7e8595"/><stop offset="1" stop-color="#555a66"/></linearGradient><linearGradient id="g" x1="10.72" y1="8.795" x2="10.95" y2="8.795" href="#AO"><stop stop-color="#7e8595"/><stop offset="1" stop-color="#555a66"/></linearGradient><linearGradient id="h" x1="12.18" y1="8.795" x2="12.41" y2="8.795" href="#AO"><stop stop-color="#7e8595"/><stop offset="1" stop-color="#555a66"/></linearGradient><linearGradient id="i" x1="14.066" y1="8.795" x2="14.296" y2="8.795" href="#AO"><stop stop-color="#7e8595"/><stop offset="1" stop-color="#555a66"/></linearGradient><linearGradient id="j" x1="15.983" y1="8.795" x2="16.212" y2="8.795" href="#AO"><stop stop-color="#7e8595"/><stop offset="1" stop-color="#555a66"/></linearGradient><linearGradient id="k" x1="17.754" y1="8.795" x2="17.984" y2="8.795" href="#AO"><stop stop-color="#7e8595"/><stop offset="1" stop-color="#555a66"/></linearGradient><linearGradient id="l" x1="10.255" y1="6.486" x2="10.255" y2="10.835" href="#AO"><stop stop-color="#ff7044"/><stop offset="1" stop-color="#f92814"/></linearGradient><linearGradient id="m" x1="12.311" y1="6.486" x2="12.311" y2="10.835" href="#AO"><stop stop-color="#ff7044"/><stop offset="1" stop-color="#f92814"/></linearGradient><linearGradient id="n" x1="14.197" y1="6.486" x2="14.197" y2="10.835" href="#AO"><stop stop-color="#ff7044"/><stop offset="1" stop-color="#f92814"/></linearGradient><linearGradient id="o" x1="16.113" y1="6.486" x2="16.113" y2="10.835" href="#AO"><stop stop-color="#ff7044"/><stop offset="1" stop-color="#f92814"/></linearGradient><linearGradient id="p" x1="17.885" y1="6.486" x2="17.885" y2="10.835" href="#AO"><stop stop-color="#ff7044"/><stop offset="1" stop-color="#f92814"/></linearGradient><linearGradient id="q" x1="14" y1="8.897" x2="14" y2="10.095" href="#AO"><stop stop-color="#ffda45"/><stop offset="1" stop-color="#ffa425"/></linearGradient><linearGradient id="r" x1="12.696" y1="12.507" x2="9.189" y2="7.885" href="#AO"><stop stop-color="#f0ddfc" stop-opacity="0"/><stop offset=".289" stop-color="#c8b7e0" stop-opacity=".289"/><stop offset=".592" stop-color="#a595c8" stop-opacity=".592"/><stop offset=".84" stop-color="#8f81b8" stop-opacity=".84"/><stop offset="1" stop-color="#8779b3"/></linearGradient><linearGradient id="s" x1="14.603" y1="12.488" x2="13.77" y2="8.134" href="#AO"><stop stop-color="#f0ddfc" stop-opacity="0"/><stop offset=".289" stop-color="#c8b7e0" stop-opacity=".289"/><stop offset=".592" stop-color="#a595c8" stop-opacity=".592"/><stop offset=".84" stop-color="#8f81b8" stop-opacity=".84"/><stop offset="1" stop-color="#8779b3"/></linearGradient><linearGradient id="t" x1="8.874" y1="14.886" x2="5.179" y2="13.151" href="#AO"><stop stop-color="#4a98f7"/><stop offset="1" stop-color="#0469bc"/></linearGradient><linearGradient id="u" x1="8.874" y1="17.481" x2="5.179" y2="15.746" href="#AO"><stop stop-color="#4a98f7"/><stop offset="1" stop-color="#0469bc"/></linearGradient><linearGradient id="v" x1="8.874" y1="20.076" x2="5.179" y2="18.341" href="#AO"><stop stop-color="#4a98f7"/><stop offset="1" stop-color="#0469bc"/></linearGradient><linearGradient id="w" x1="6.751" y1="19.08" x2="9.856" y2="20.537" href="#AO"><stop stop-color="#f9f7fc"/><stop offset="1" stop-color="#f0ddfc"/></linearGradient><linearGradient id="x" x1="6.751" y1="16.485" x2="9.856" y2="17.942" href="#AO"><stop stop-color="#f9f7fc"/><stop offset="1" stop-color="#f0ddfc"/></linearGradient><linearGradient id="y" x1="6.751" y1="13.89" x2="9.856" y2="15.347" href="#AO"><stop stop-color="#f9f7fc"/><stop offset="1" stop-color="#f0ddfc"/></linearGradient><linearGradient id="z" x1="21.433" y1="14.886" x2="17.737" y2="13.151" href="#AO"><stop stop-color="#4a98f7"/><stop offset="1" stop-color="#0469bc"/></linearGradient><linearGradient id="AA" x1="21.433" y1="17.481" x2="17.737" y2="15.746" href="#AO"><stop stop-color="#4a98f7"/><stop offset="1" stop-color="#0469bc"/></linearGradient><linearGradient id="AB" x1="21.433" y1="20.076" x2="17.737" y2="18.341" href="#AO"><stop stop-color="#4a98f7"/><stop offset="1" stop-color="#0469bc"/></linearGradient><linearGradient id="AC" x1="19.31" y1="19.08" x2="22.415" y2="20.537" href="#AO"><stop stop-color="#f9f7fc"/><stop offset="1" stop-color="#f0ddfc"/></linearGradient><linearGradient id="AD" x1="19.31" y1="16.485" x2="22.415" y2="17.942" href="#AO"><stop stop-color="#f9f7fc"/><stop offset="1" stop-color="#f0ddfc"/></linearGradient><linearGradient id="AE" x1="19.31" y1="13.89" x2="22.415" y2="15.347" href="#AO"><stop stop-color="#f9f7fc"/><stop offset="1" stop-color="#f0ddfc"/></linearGradient><linearGradient id="AF" x1="20.791" y1="15.806" x2="16.681" y2="11.198" href="#AO"><stop stop-color="#f0ddfc" stop-opacity="0"/><stop offset=".289" stop-color="#c8b7e0" stop-opacity=".289"/><stop offset=".592" stop-color="#a595c8" stop-opacity=".592"/><stop offset=".84" stop-color="#8f81b8" stop-opacity=".84"/><stop offset="1" stop-color="#8779b3"/></linearGradient><clipPath id="AG"><path fill="#fff" transform="translate(6 6)" d="M0 0h16v16H0z"/></clipPath><path id="AH" d="M17.352 10.557c.25 0 .454.204.454.454v1.477c0 .25-.204.454-.454.454h-1.477c-.25 0-.454-.204-.454-.454v-1.477c0-.25.204-.454.454-.454h1.477z"/><path id="AI" d="M10.647 17.902c-.124 0-.224-.101-.224-.224v-1.477c0-.124.101-.224.224-.224h1.477c.124 0 .224.101.224.224v1.477c0 .124-.101.224-.224.224h-1.477z"/><path id="AJ" d="M9.529 8.454h.251v.681h-.251v-.681z"/><path id="AK" d="M8.459 13.152c.25 0 .454.204.454.454v1.477c0 .25-.204.454-.454.454H6.982c-.25 0-.454-.204-.454-.454v-1.477c0-.25.204-.454.454-.454h1.477z"/><path id="AL" d="M6.982 20.498c-.124 0-.224-.101-.224-.224v-1.477c0-.124.101-.224.224-.224h1.477c.124 0 .224.101.224.224v1.477c0 .124-.101.224-.224.224H6.982z"/><path id="AM" d="M21.018 13.152c.25 0 .454.204.454.454v1.477c0 .25-.204.454-.454.454H19.54c-.25 0-.454-.204-.454-.454v-1.477c0-.25.204-.454.454-.454h1.477z"/><path id="AN" d="M19.54 20.498c-.124 0-.224-.101-.224-.224v-1.477c0-.124.101-.224.224-.224h1.477c.124 0 .224.101.224.224v1.477c0 .124-.101.224-.224.224H19.54z"/><linearGradient id="AO" gradientUnits="userSpaceOnUse"/></defs></svg>