<svg xmlns="http://www.w3.org/2000/svg" width="16" height="16" fill="none" xmlns:v="https://vecta.io/nano"><path fill-rule="evenodd" d="M2.167 6.762C2.167 3.496 4.77.833 8 .833s5.833 2.663 5.833 5.929c0 1.577-.449 3.27-1.244 4.733s-1.952 2.73-3.403 3.408a2.8 2.8 0 0 1-2.373 0c-1.451-.678-2.609-1.947-3.403-3.408S2.167 8.339 2.167 6.762zM8 1.833c-2.661 0-4.833 2.198-4.833 4.929 0 1.398.402 2.928 1.123 4.255s1.741 2.416 2.947 2.979a1.8 1.8 0 0 0 1.527 0c1.206-.563 2.226-1.651 2.947-2.979s1.123-2.857 1.123-4.255c0-2.731-2.172-4.929-4.833-4.929zm0 3.333a1.5 1.5 0 0 0-1.061.439A1.5 1.5 0 0 0 6.5 6.667a1.5 1.5 0 0 0 .439 1.061A1.5 1.5 0 0 0 8 8.167a1.5 1.5 0 0 0 1.5-1.5 1.5 1.5 0 0 0-1.5-1.5zm-2.5 1.5a2.5 2.5 0 0 1 2.5-2.5 2.5 2.5 0 0 1 2.5 2.5 2.5 2.5 0 0 1-2.5 2.5 2.5 2.5 0 0 1-2.5-2.5z" fill="#78828a"/></svg>