<svg xmlns="http://www.w3.org/2000/svg" width="16" height="16" fill="none" xmlns:v="https://vecta.io/nano"><path d="M6.102 3.605C6.947 2.091 7.369 1.333 8 1.333s1.053.757 1.898 2.272l.219.392c.24.431.36.646.547.788s.42.195.887.3l.424.096c1.64.371 2.459.557 2.655 1.184s-.364 1.281-1.482 2.588l-.289.338c-.317.371-.477.557-.548.787s-.047.478.001.973l.044.451c.169 1.745.253 2.617-.257 3.004s-1.279.034-2.813-.673l-.398-.183c-.436-.201-.654-.301-.885-.301s-.449.1-.886.301l-.397.183c-1.535.707-2.303 1.06-2.813.673s-.427-1.26-.258-3.005l.044-.451c.048-.496.072-.744 0-.973s-.23-.416-.547-.787l-.289-.339C1.735 7.647 1.177 6.993 1.371 6.365s1.015-.813 2.655-1.184l.424-.096c.466-.105.699-.158.886-.3s.307-.357.547-.788l.219-.392z" fill="#edb900"/></svg>